<?xml version="1.0" standalone="no"?>
<!DOCTYPE svg PUBLIC "-//W3C//DTD SVG 20010904//EN"
 "http://www.w3.org/TR/2001/REC-SVG-20010904/DTD/svg10.dtd">
<svg version="1.0" xmlns="http://www.w3.org/2000/svg"
 width="1693.000000pt" height="554.000000pt" viewBox="0 0 1693.000000 554.000000"
 preserveAspectRatio="xMidYMid meet">

<g transform="translate(0.000000,554.000000) scale(0.100000,-0.100000)"
fill="#000000" stroke="none">
<path d="M1492 5528 c-9 -9 -12 -114 -12 -410 l0 -398 40 0 40 0 0 -425 0
-425 451 0 452 0 -7 -31 c-3 -17 -6 -38 -6 -45 0 -12 -74 -14 -445 -14 l-445
0 0 -457 -1 -458 -39 75 -39 75 -1 -652 0 -653 555 0 555 0 0 -600 0 -600 440
0 440 0 2 -246 c3 -222 5 -248 21 -258 12 -8 22 -8 35 0 15 10 17 36 20 258
l2 246 350 0 350 0 0 290 0 290 -350 0 -350 0 0 -290 0 -290 -40 0 -40 0 0
290 0 290 -145 0 -145 0 0 190 0 190 145 0 145 0 0 120 0 120 -440 0 -440 0 0
40 0 40 440 0 440 0 0 130 0 130 -145 0 -145 0 0 180 0 179 143 3 142 3 3 293
2 292 40 0 40 0 0 -295 0 -295 353 2 352 3 3 293 2 292 -355 0 -355 0 0 435 0
435 -543 0 -543 0 -12 118 c-19 189 -71 327 -172 453 -70 87 -140 144 -236
191 -116 56 -207 78 -356 85 l-128 6 0 389 c0 249 -4 396 -10 409 -12 21 -40
25 -58 7z m1978 -2138 l0 -390 -440 0 -440 0 0 -605 0 -605 -515 0 -515 0 1
533 0 532 154 -312 153 -313 332 0 c311 0 332 1 325 17 -3 10 -114 216 -246
459 -131 243 -239 444 -239 447 0 2 26 20 59 40 171 106 290 284 337 505 l17
82 509 0 508 0 0 -390z"/>
<path d="M650 4295 l0 -425 -309 0 c-268 0 -312 -2 -325 -16 -18 -18 -20 -32
-6 -54 8 -13 57 -15 325 -18 l315 -3 0 -774 0 -775 290 0 290 0 0 416 0 415
120 -3 120 -3 0 363 0 362 -410 0 -410 0 0 45 0 45 410 0 410 0 0 425 0 425
-410 0 -410 0 0 -425z"/>
<path d="M6930 3370 l0 -650 50 0 49 0 3 86 3 86 34 -47 c42 -59 135 -120 206
-136 81 -18 199 -8 268 24 110 50 202 163 241 296 20 70 21 218 1 296 -35 132
-116 235 -233 292 -73 36 -80 38 -177 38 -93 0 -105 -2 -167 -33 -45 -22 -84
-52 -122 -93 l-56 -60 0 275 0 276 -50 0 -50 0 0 -650z m553 174 c66 -22 140
-93 176 -167 101 -206 28 -463 -156 -553 -44 -22 -69 -27 -126 -28 -118 0
-207 43 -272 132 -123 168 -94 450 58 566 86 66 215 86 320 50z"/>
<path d="M5590 3356 l0 -636 50 0 50 0 2 268 3 267 119 0 119 0 151 -265 152
-265 61 -3 62 -3 -160 272 c-87 149 -159 272 -159 273 0 2 19 8 43 15 96 28
163 86 214 184 25 47 28 62 28 157 0 99 -2 109 -33 172 -39 79 -110 148 -180
174 -39 15 -88 18 -284 22 l-238 4 0 -636z m471 519 c100 -34 159 -114 167
-225 8 -120 -36 -208 -130 -257 -51 -27 -59 -28 -230 -31 l-178 -4 0 266 0
266 163 0 c120 0 175 -4 208 -15z"/>
<path d="M6567 3940 c-33 -26 -43 -70 -23 -108 17 -34 34 -42 80 -42 40 0 65
25 73 73 5 31 1 40 -25 67 -36 35 -69 38 -105 10z"/>
<path d="M8987 3940 c-33 -26 -43 -70 -23 -108 17 -34 34 -42 80 -42 40 0 65
25 73 73 5 31 1 40 -25 67 -36 35 -69 38 -105 10z"/>
<path d="M8282 3655 c-147 -32 -266 -152 -307 -310 -20 -79 -20 -245 1 -316
40 -134 122 -237 227 -285 53 -24 78 -29 168 -32 131 -5 197 8 298 59 101 50
105 55 77 101 l-22 36 -54 -34 c-117 -72 -306 -93 -413 -46 -101 45 -184 162
-195 274 l-5 48 364 2 364 3 3 49 c14 226 -123 417 -328 456 -67 13 -100 12
-178 -5z m211 -101 c99 -33 176 -139 192 -261 l7 -53 -317 0 -318 0 7 46 c17
125 100 229 215 270 50 18 158 17 214 -2z"/>
<path d="M10184 3655 c-80 -17 -136 -46 -195 -102 -106 -99 -152 -210 -152
-368 0 -159 46 -269 154 -370 125 -117 324 -145 486 -69 30 15 80 52 112 83
98 98 141 207 141 361 0 144 -44 256 -139 350 -63 64 -138 103 -225 119 -74
14 -105 13 -182 -4z m251 -117 c98 -51 174 -160 195 -281 30 -169 -55 -353
-195 -424 -60 -31 -169 -42 -242 -24 -99 25 -197 119 -239 231 -27 70 -24 229
5 302 38 96 134 187 231 219 14 5 63 7 110 5 68 -2 95 -8 135 -28z"/>
<path d="M9575 3637 c-54 -26 -80 -51 -114 -107 l-21 -35 0 73 0 72 -45 0 -45
0 0 -460 0 -460 49 0 50 0 3 323 c3 302 4 325 24 367 55 118 160 177 271 152
l42 -10 7 45 c3 24 3 47 -1 51 -3 4 -43 8 -88 10 -70 2 -89 -1 -132 -21z"/>
<path d="M6570 3180 l0 -460 45 0 45 0 0 460 0 460 -45 0 -45 0 0 -460z"/>
<path d="M8990 3180 l0 -460 45 0 45 0 0 460 0 460 -45 0 -45 0 0 -460z"/>
<path d="M8165 2474 c-102 -16 -180 -49 -268 -115 -108 -80 -182 -200 -211
-342 -71 -340 108 -653 414 -728 74 -18 230 -16 309 5 85 22 184 75 265 142
l66 54 0 245 0 245 -250 0 -250 0 0 -100 0 -100 150 0 150 0 0 -84 0 -84 -35
-26 c-19 -15 -61 -39 -93 -54 -50 -24 -69 -27 -162 -27 -94 0 -110 3 -155 27
-63 33 -139 113 -167 175 -30 68 -37 221 -13 295 24 69 52 114 105 162 71 64
120 81 235 81 88 0 107 -3 158 -27 32 -15 77 -42 99 -60 l41 -32 54 59 c88 97
90 101 62 131 -43 46 -143 104 -223 129 -77 25 -215 39 -281 29z"/>
<path d="M5600 1875 l0 -585 375 0 375 0 0 110 0 110 -265 0 -265 0 0 130 0
130 245 0 245 0 0 110 0 110 -245 0 -245 0 0 125 0 125 265 0 265 0 0 110 0
110 -375 0 -375 0 0 -585z"/>
<path d="M6550 1875 l0 -585 110 0 110 0 2 355 3 355 283 -355 282 -355 75 0
75 0 0 585 0 586 -107 -3 -108 -3 -5 -354 -5 -355 -286 355 -285 354 -72 3
-72 3 0 -586z"/>
<path d="M8940 1875 l0 -585 375 0 375 0 0 110 0 110 -265 0 -265 0 0 130 0
130 245 0 245 0 0 110 0 110 -245 0 -245 0 0 125 0 125 265 0 265 0 0 110 0
110 -375 0 -375 0 0 -585z"/>
<path d="M9890 1875 l0 -585 110 0 110 0 2 355 3 355 283 -355 282 -355 75 0
75 0 0 585 0 586 -107 -3 -108 -3 -5 -354 -5 -355 -286 355 -285 354 -72 3
-72 3 0 -586z"/>
<path d="M11070 1875 l0 -585 110 0 110 0 2 238 3 237 230 0 230 0 3 -237 2
-238 105 0 105 0 0 585 0 585 -105 0 -105 0 -2 -232 -3 -233 -232 -3 -233 -2
0 235 0 235 -110 0 -110 0 0 -585z"/>
<path d="M12522 2433 c-5 -15 -83 -230 -172 -478 -89 -247 -180 -499 -201
-558 l-39 -108 117 3 117 3 40 123 41 122 194 -2 195 -3 40 -122 39 -123 114
0 c62 0 113 3 113 8 0 4 -92 266 -204 582 l-204 575 -90 3 -90 3 -10 -28z
m164 -493 l62 -190 -130 0 c-100 0 -129 3 -125 13 2 6 31 92 63 190 32 97 61
177 64 177 3 0 33 -86 66 -190z"/>
<path d="M13260 1876 l0 -586 110 0 110 0 2 213 3 212 64 0 65 0 115 -212 116
-212 128 -1 c70 0 127 2 127 4 0 2 -59 104 -131 226 -72 122 -129 223 -127
224 2 1 24 14 49 29 59 33 105 86 138 157 22 48 26 68 26 155 -1 81 -5 111
-24 158 -32 80 -108 157 -186 187 -56 22 -76 24 -322 28 l-263 4 0 -586z m493
349 c50 -24 71 -61 75 -132 4 -50 0 -68 -17 -96 -34 -56 -78 -70 -211 -71
l-115 -1 -3 158 -3 157 122 0 c88 0 129 -4 152 -15z"/>
<path d="M14270 1875 l0 -585 110 0 110 0 0 585 0 585 -110 0 -110 0 0 -585z"/>
<path d="M15032 2433 c-5 -15 -83 -230 -172 -478 -89 -247 -180 -499 -201
-558 l-39 -108 117 3 117 3 40 123 41 122 194 -2 195 -3 40 -122 39 -123 114
0 c62 0 113 3 113 8 0 4 -92 266 -204 582 l-204 575 -90 3 -90 3 -10 -28z
m164 -493 l62 -190 -130 0 c-100 0 -129 3 -125 13 2 6 31 92 63 190 32 97 61
177 64 177 3 0 33 -86 66 -190z"/>
<path d="M3550 1920 l0 -130 315 0 315 0 0 -40 0 -40 -315 0 -315 0 0 -120 0
-120 315 0 315 0 0 120 0 120 386 2 c356 3 388 4 398 21 8 12 8 22 0 35 -10
16 -42 17 -397 20 l-386 2 -3 128 -3 127 -312 3 -313 2 0 -130z"/>
<path d="M6284 1091 c-68 -31 -105 -113 -85 -189 17 -60 45 -88 127 -128 85
-41 110 -68 95 -106 -23 -60 -137 -49 -185 18 -14 18 -15 18 -35 -6 -36 -43
-36 -59 0 -96 63 -65 180 -81 257 -34 50 31 72 75 72 147 0 78 -24 110 -124
160 -86 43 -106 59 -106 89 0 56 79 73 142 30 l36 -24 22 40 c12 21 20 45 17
52 -9 23 -108 66 -151 66 -23 0 -59 -9 -82 -19z"/>
<path d="M7186 1095 c-56 -20 -105 -63 -140 -125 -29 -51 -31 -62 -31 -155 0
-89 3 -105 27 -151 84 -159 286 -189 421 -62 l37 35 0 117 0 116 -115 0 -115
0 0 -50 0 -50 70 0 70 0 0 -39 c0 -45 -25 -71 -87 -92 -110 -36 -213 49 -213
177 0 58 32 128 70 156 54 39 148 35 199 -8 l29 -24 31 37 c17 21 30 42 28 48
-2 5 -21 22 -43 37 -69 47 -162 60 -238 33z"/>
<path d="M9696 1095 c-99 -35 -166 -132 -174 -250 -6 -90 11 -162 49 -215 32
-44 111 -100 142 -100 16 0 18 -5 12 -40 -7 -39 -6 -40 23 -40 38 0 60 -24 41
-46 -9 -11 -22 -14 -47 -9 -37 7 -52 -4 -52 -37 0 -21 60 -40 100 -31 41 8 74
47 74 88 0 36 -27 75 -51 75 -27 0 -8 34 22 40 17 4 44 14 61 23 33 17 94 73
94 85 -1 4 -14 22 -30 41 l-29 34 -40 -36 c-124 -112 -288 -9 -267 167 10 91
78 156 161 156 43 0 69 -12 111 -52 l31 -29 32 36 c36 41 32 58 -22 99 -69 53
-163 69 -241 41z"/>
<path d="M11346 1095 c-56 -20 -105 -63 -139 -124 -25 -43 -31 -69 -35 -130
-2 -42 1 -95 7 -118 17 -63 70 -134 125 -168 43 -26 59 -30 120 -30 111 1 190
55 239 164 32 72 29 191 -7 264 -62 127 -189 185 -310 142z m162 -122 c46 -34
65 -70 70 -127 6 -77 -4 -121 -39 -161 -57 -65 -140 -70 -206 -12 -44 38 -63
82 -63 141 0 75 28 125 95 168 37 24 105 19 143 -9z"/>
<path d="M15276 1095 c-56 -20 -105 -63 -139 -124 -25 -43 -31 -69 -35 -130
-2 -42 1 -95 7 -118 17 -63 70 -134 125 -168 43 -26 59 -30 120 -30 111 1 190
55 239 164 32 72 29 191 -7 264 -62 127 -189 185 -310 142z m162 -122 c46 -34
65 -70 70 -127 6 -77 -4 -121 -39 -161 -57 -65 -140 -70 -206 -12 -44 38 -63
82 -63 141 0 75 28 125 95 168 37 24 105 19 143 -9z"/>
<path d="M5610 815 l0 -285 165 0 165 0 0 55 0 55 -115 0 -115 0 0 65 0 65
110 0 110 0 0 50 0 50 -110 0 -110 0 0 65 0 65 115 0 115 0 0 50 0 50 -165 0
-165 0 0 -285z"/>
<path d="M6620 815 l0 -285 165 0 165 0 0 55 0 55 -115 0 -115 0 0 65 0 65
110 0 110 0 0 50 0 50 -110 0 -110 0 0 65 0 65 115 0 115 0 0 50 0 50 -165 0
-165 0 0 -285z"/>
<path d="M7582 878 c3 -239 7 -255 60 -305 103 -97 280 -49 318 85 5 20 10
128 10 240 l0 202 -50 0 -50 0 0 -195 c0 -207 -6 -242 -49 -265 -25 -13 -67
-13 -92 0 -43 23 -49 58 -49 265 l0 195 -51 0 -51 0 4 -222z"/>
<path d="M8080 816 l0 -286 45 0 44 0 3 103 3 102 30 3 c29 3 32 -1 82 -103
l53 -105 55 0 c30 0 55 3 55 6 0 3 -25 53 -56 111 -53 98 -56 106 -39 116 81
45 108 176 54 263 -37 60 -61 68 -201 72 l-128 4 0 -286z m208 178 c31 -9 55
-57 47 -95 -9 -42 -40 -59 -107 -59 l-58 0 0 73 c0 41 3 77 7 80 8 9 80 9 111
1z"/>
<path d="M8582 822 c-50 -152 -92 -281 -92 -285 0 -4 22 -7 50 -7 l50 0 17 60
18 60 91 0 91 0 16 -60 17 -60 50 0 c28 0 50 3 50 6 0 3 -41 131 -91 285 l-91
279 -42 0 -41 0 -93 -278z m163 35 c14 -46 25 -88 25 -95 0 -8 -19 -12 -55
-12 -30 0 -55 3 -55 8 0 11 53 182 56 182 2 0 15 -37 29 -83z"/>
<path d="M9010 815 l0 -285 45 0 45 0 0 170 c0 94 3 170 8 170 4 0 63 -77 132
-170 117 -160 126 -170 157 -170 l33 0 0 285 0 285 -50 0 -50 0 -2 -172 -3
-173 -127 173 c-116 156 -131 172 -158 172 l-30 0 0 -285z"/>
<path d="M10102 822 c-50 -152 -92 -281 -92 -285 0 -4 22 -7 50 -7 l50 0 17
60 18 60 91 0 91 0 16 -60 17 -60 50 0 c28 0 50 3 50 6 0 3 -41 131 -91 285
l-91 279 -42 0 -41 0 -93 -278z m163 35 c14 -46 25 -88 25 -95 0 -8 -19 -12
-55 -12 -30 0 -55 3 -55 8 0 11 53 182 56 182 2 0 15 -37 29 -83z"/>
<path d="M10680 814 l0 -286 133 4 c128 3 136 4 183 33 67 42 105 116 112 219
9 143 -38 249 -131 291 -46 22 -66 25 -174 25 l-123 0 0 -286z m275 143 c70
-70 73 -204 5 -280 -27 -30 -33 -32 -109 -35 l-81 -4 0 176 0 176 76 0 c73 0
77 -1 109 -33z"/>
<path d="M11870 1045 l0 -55 70 0 70 0 0 -230 0 -230 50 0 50 0 0 230 0 230
75 0 75 0 0 55 0 55 -195 0 -195 0 0 -55z"/>
<path d="M12330 816 l0 -286 45 0 44 0 3 103 3 102 30 3 c29 3 32 -1 82 -103
l53 -105 55 0 c30 0 55 3 55 6 0 3 -25 53 -56 111 -53 98 -56 106 -39 116 81
45 108 176 54 263 -37 60 -61 68 -201 72 l-128 4 0 -286z m208 178 c31 -9 55
-57 47 -95 -9 -42 -40 -59 -107 -59 l-58 0 0 73 c0 41 3 77 7 80 8 9 80 9 111
1z"/>
<path d="M12832 822 c-50 -152 -92 -281 -92 -285 0 -4 22 -7 50 -7 l50 0 17
60 18 60 91 0 91 0 16 -60 17 -60 50 0 c28 0 50 3 50 6 0 3 -41 131 -91 285
l-91 279 -42 0 -41 0 -93 -278z m163 35 c14 -46 25 -88 25 -95 0 -8 -19 -12
-55 -12 -30 0 -55 3 -55 8 0 11 53 182 56 182 2 0 15 -37 29 -83z"/>
<path d="M13260 815 l0 -285 125 0 c154 0 194 13 230 75 46 77 27 181 -40 225
-16 11 -24 20 -17 20 22 0 52 63 52 108 0 54 -22 97 -63 122 -27 17 -51 20
-159 20 l-128 0 0 -285z m250 153 c13 -25 13 -31 0 -55 -15 -26 -21 -28 -88
-31 l-72 -3 0 61 0 61 72 -3 c67 -3 73 -5 88 -30z m9 -214 c12 -15 21 -37 21
-49 0 -12 -9 -34 -21 -49 -19 -24 -26 -26 -95 -26 l-74 0 0 75 0 75 74 0 c69
0 76 -2 95 -26z"/>
<path d="M13752 822 c-50 -152 -92 -281 -92 -285 0 -4 22 -7 50 -7 l50 0 17
60 18 60 91 0 91 0 16 -60 17 -60 50 0 c28 0 50 3 50 6 0 3 -41 131 -91 285
l-91 279 -42 0 -41 0 -93 -278z m163 35 c14 -46 25 -88 25 -95 0 -8 -19 -12
-55 -12 -30 0 -55 3 -55 8 0 11 53 182 56 182 2 0 15 -37 29 -83z"/>
<path d="M14180 815 l0 -285 175 0 175 0 0 55 0 55 -125 0 -125 0 0 230 0 230
-50 0 -50 0 0 -285z"/>
<path d="M14600 815 l0 -285 45 0 45 0 0 115 0 115 110 0 110 0 0 -115 0 -115
45 0 45 0 0 285 0 285 -45 0 -44 0 -3 -112 -3 -113 -105 0 -105 0 -3 113 -3
112 -44 0 -45 0 0 -285z"/>
</g>
</svg>
